<svg width="14" height="22" viewBox="0 0 14 22" fill="none" xmlns="http://www.w3.org/2000/svg">
<path d="M7.688 2.544C8.43467 2.672 9.10667 2.896 9.704 3.216C10.3227 3.51467 10.8453 3.888 11.272 4.336C11.6987 4.784 12.0293 5.28533 12.264 5.84C12.4987 6.37333 12.616 6.93867 12.616 7.536V8.112H10.184V7.728C10.184 7.024 9.94933 6.42667 9.48 5.936C9.032 5.44533 8.43467 5.104 7.688 4.912V9.488C9.45867 9.70133 10.8027 10.192 11.72 10.96C12.6587 11.7067 13.128 12.7413 13.128 14.064V14.256C13.128 15.6853 12.6267 16.8373 11.624 17.712C10.6427 18.5653 9.33067 19.0453 7.688 19.152V21.104H5.384V19.088C4.44533 18.9387 3.63467 18.6827 2.952 18.32C2.29067 17.936 1.736 17.488 1.288 16.976C0.861334 16.4427 0.541334 15.8773 0.328 15.28C0.114667 14.6613 0.00800014 14.0427 0.00800014 13.424V12.656H2.44V13.04C2.44 14.064 2.696 14.8853 3.208 15.504C3.72 16.1227 4.44533 16.5387 5.384 16.752V11.536C3.784 11.3227 2.55733 10.864 1.704 10.16C0.872 9.43467 0.456 8.432 0.456 7.152V6.96C0.456 6.27733 0.584 5.68 0.84 5.168C1.11733 4.63467 1.48 4.18667 1.928 3.824C2.376 3.44 2.89867 3.14133 3.496 2.928C4.09333 2.69333 4.72267 2.544 5.384 2.48V0.495998H7.688V2.544ZM10.632 14.256C10.632 13.5093 10.3973 12.9547 9.928 12.592C9.45867 12.2293 8.712 11.9627 7.688 11.792V16.848C8.60533 16.7413 9.32 16.464 9.832 16.016C10.3653 15.568 10.632 14.9813 10.632 14.256ZM2.952 6.96C2.952 7.55733 3.12267 8.048 3.464 8.432C3.82667 8.79467 4.46667 9.06133 5.384 9.232V4.784C4.70133 4.89067 4.12533 5.12533 3.656 5.488C3.18667 5.85067 2.952 6.34133 2.952 6.96Z" fill="#9FB3B2"/>
</svg>
